<svg aria-roledescription="er" role="graphics-document document" viewBox="-11.5902099609375 -62 352.26739501953125 872" style="max-width: 100%;" xmlns="http://www.w3.org/2000/svg" width="100%" id="graph-div" height="100%" xmlns:xlink="http://www.w3.org/1999/xlink"><style>@import url("https://cdnjs.cloudflare.com/ajax/libs/font-awesome/6.5.0/css/all.min.css");'</style><style>#graph-div{font-family:"trebuchet ms",verdana,arial,sans-serif;font-size:16px;fill:#ccc;}#graph-div .error-icon{fill:#a44141;}#graph-div .error-text{fill:#ddd;stroke:#ddd;}#graph-div .edge-thickness-normal{stroke-width:2px;}#graph-div .edge-thickness-thick{stroke-width:3.5px;}#graph-div .edge-pattern-solid{stroke-dasharray:0;}#graph-div .edge-pattern-dashed{stroke-dasharray:3;}#graph-div .edge-pattern-dotted{stroke-dasharray:2;}#graph-div .marker{fill:lightgrey;stroke:lightgrey;}#graph-div .marker.cross{stroke:lightgrey;}#graph-div svg{font-family:"trebuchet ms",verdana,arial,sans-serif;font-size:16px;}#graph-div .entityBox{fill:#1f2020;stroke:#81B1DB;}#graph-div .attributeBoxOdd{fill:hsl(0, 0%, 32%);stroke:#81B1DB;}#graph-div .attributeBoxEven{fill:hsl(0, 0%, 22%);stroke:#81B1DB;}#graph-div .relationshipLabelBox{fill:hsl(20, 1.5873015873%, 12.3529411765%);opacity:0.7;background-color:hsl(20, 1.5873015873%, 12.3529411765%);}#graph-div .relationshipLabelBox rect{opacity:0.5;}#graph-div .relationshipLine{stroke:lightgrey;}#graph-div .entityTitleText{text-anchor:middle;font-size:18px;fill:#ccc;}#graph-div #MD_PARENT_START{fill:#f5f5f5!important;stroke:lightgrey!important;stroke-width:1;}#graph-div #MD_PARENT_END{fill:#f5f5f5!important;stroke:lightgrey!important;stroke-width:1;}#graph-div :root{--mermaid-font-family:"trebuchet ms",verdana,arial,sans-serif;}</style><g></g><defs><marker orient="auto" markerHeight="240" markerWidth="190" refY="7" refX="0" id="MD_PARENT_START"><path d="M 18,7 L9,13 L1,7 L9,1 Z"></path></marker></defs><defs><marker orient="auto" markerHeight="28" markerWidth="20" refY="7" refX="19" id="MD_PARENT_END"><path d="M 18,7 L9,13 L1,7 L9,1 Z"></path></marker></defs><defs><marker orient="auto" markerHeight="18" markerWidth="18" refY="9" refX="0" id="ONLY_ONE_START"><path d="M9,0 L9,18 M15,0 L15,18" fill="none" stroke="gray"></path></marker></defs><defs><marker orient="auto" markerHeight="18" markerWidth="18" refY="9" refX="18" id="ONLY_ONE_END"><path d="M3,0 L3,18 M9,0 L9,18" fill="none" stroke="gray"></path></marker></defs><defs><marker orient="auto" markerHeight="18" markerWidth="30" refY="9" refX="0" id="ZERO_OR_ONE_START"><circle r="6" cy="9" cx="21" fill="white" stroke="gray"></circle><path d="M9,0 L9,18" fill="none" stroke="gray"></path></marker></defs><defs><marker orient="auto" markerHeight="18" markerWidth="30" refY="9" refX="30" id="ZERO_OR_ONE_END"><circle r="6" cy="9" cx="9" fill="white" stroke="gray"></circle><path d="M21,0 L21,18" fill="none" stroke="gray"></path></marker></defs><defs><marker orient="auto" markerHeight="36" markerWidth="45" refY="18" refX="18" id="ONE_OR_MORE_START"><path d="M0,18 Q 18,0 36,18 Q 18,36 0,18 M42,9 L42,27" fill="none" stroke="gray"></path></marker></defs><defs><marker orient="auto" markerHeight="36" markerWidth="45" refY="18" refX="27" id="ONE_OR_MORE_END"><path d="M3,9 L3,27 M9,18 Q27,0 45,18 Q27,36 9,18" fill="none" stroke="gray"></path></marker></defs><defs><marker orient="auto" markerHeight="36" markerWidth="57" refY="18" refX="18" id="ZERO_OR_MORE_START"><circle r="6" cy="18" cx="48" fill="white" stroke="gray"></circle><path d="M0,18 Q18,0 36,18 Q18,36 0,18" fill="none" stroke="gray"></path></marker></defs><defs><marker orient="auto" markerHeight="36" markerWidth="57" refY="18" refX="39" id="ZERO_OR_MORE_END"><circle r="6" cy="18" cx="9" fill="white" stroke="gray"></circle><path d="M21,18 Q39,0 57,18 Q39,36 21,18" fill="none" stroke="gray"></path></marker></defs><path style="stroke: gray; fill: none;" marker-start="url(#ZERO_OR_MORE_START)" marker-end="url(#ZERO_OR_MORE_END)" d="M174.746,70.214L186.413,61.845C198.079,53.476,221.413,36.738,235.996,28.369C250.579,20,256.413,20,262.246,34.833C268.079,49.667,273.913,79.333,273.913,109C273.913,138.667,268.079,168.333,262.246,183.167C256.413,198,250.579,198,235.996,189.631C221.413,181.262,198.079,164.524,186.413,156.155L174.746,147.786" class="er relationshipLine"></path><path style="stroke: gray; fill: none;" marker-start="url(#ZERO_OR_ONE_START)" marker-end="url(#ONE_OR_MORE_END)" d="M66.608,184.155L58.953,194.796C51.298,205.437,35.988,226.718,28.332,253.193C20.677,279.667,20.677,311.333,20.677,343C20.677,374.667,20.677,406.333,24.238,430.5C27.8,454.667,34.922,471.333,38.483,479.667L42.045,488" class="er relationshipLine"></path><path style="stroke: gray; fill: none;" marker-start="url(#ONE_OR_MORE_START)" marker-end="url(#ZERO_OR_MORE_END)" d="M120.677,198L120.677,206.333C120.677,214.667,120.677,231.333,120.677,255.5C120.677,279.667,120.677,311.333,120.677,343C120.677,374.667,120.677,406.333,117.116,430.5C113.555,454.667,106.432,471.333,102.871,479.667L99.31,488" class="er relationshipLine"></path><path style="stroke: gray; fill: none;" marker-start="url(#ONLY_ONE_START)" marker-end="url(#ZERO_OR_MORE_END)" d="M174.746,159.104L190.734,173.92C206.723,188.736,238.7,218.368,254.689,241.517C270.677,264.667,270.677,281.333,270.677,289.667L270.677,298" class="er relationshipLine"></path><path style="stroke: gray; fill: none;" marker-start="url(#ZERO_OR_MORE_START)" marker-end="url(#ONLY_ONE_END)" d="M270.677,388L270.677,396.333C270.677,404.667,270.677,421.333,245.79,444.226C220.903,467.118,171.129,496.236,146.241,510.795L121.354,525.354" class="er relationshipLine"></path><path style="stroke: gray; fill: none;" marker-start="url(#ONE_OR_MORE_START)" marker-end="url(#ZERO_OR_MORE_END)" d="M70.677,622L70.677,630.333C70.677,638.667,70.677,655.333,70.677,672C70.677,688.667,70.677,705.333,70.677,713.667L70.677,722" class="er relationshipLine"></path><g transform="translate(66.60847473144531,20 )" id="entity-User-818c511a-4a32-5484-ba70-875d765a9175"><rect height="178" width="108.13737487792969" y="0" x="0" class="er entityBox"></rect><text style="dominant-baseline: middle; text-anchor: middle; font-size: 12px;" transform="translate(54.068687438964844,12)" y="0" x="0" id="text-entity-User-818c511a-4a32-5484-ba70-875d765a9175" class="er entityLabel">User</text><rect height="22" width="29.717254638671875" y="24" x="0" class="er attributeBoxOdd"></rect><text style="dominant-baseline: middle; font-size: 10.2px;" transform="translate(5,35)" y="0" x="0" id="text-entity-User-818c511a-4a32-5484-ba70-875d765a9175-attr-1-type" class="er entityLabel">int</text><rect height="22" width="78.42012023925781" y="24" x="29.717254638671875" class="er attributeBoxOdd"></rect><text style="dominant-baseline: middle; font-size: 10.2px;" transform="translate(34.717254638671875,35)" y="0" x="0" id="text-entity-User-818c511a-4a32-5484-ba70-875d765a9175-attr-1-name" class="er entityLabel">id</text><rect height="22" width="29.717254638671875" y="46" x="0" class="er attributeBoxEven"></rect><text style="dominant-baseline: middle; font-size: 10.2px;" transform="translate(5,57)" y="0" x="0" id="text-entity-User-818c511a-4a32-5484-ba70-875d765a9175-attr-2-type" class="er entityLabel">text</text><rect height="22" width="78.42012023925781" y="46" x="29.717254638671875" class="er attributeBoxEven"></rect><text style="dominant-baseline: middle; font-size: 10.2px;" transform="translate(34.717254638671875,57)" y="0" x="0" id="text-entity-User-818c511a-4a32-5484-ba70-875d765a9175-attr-2-name" class="er entityLabel">email</text><rect height="22" width="29.717254638671875" y="68" x="0" class="er attributeBoxOdd"></rect><text style="dominant-baseline: middle; font-size: 10.2px;" transform="translate(5,79)" y="0" x="0" id="text-entity-User-818c511a-4a32-5484-ba70-875d765a9175-attr-3-type" class="er entityLabel">text</text><rect height="22" width="78.42012023925781" y="68" x="29.717254638671875" class="er attributeBoxOdd"></rect><text style="dominant-baseline: middle; font-size: 10.2px;" transform="translate(34.717254638671875,79)" y="0" x="0" id="text-entity-User-818c511a-4a32-5484-ba70-875d765a9175-attr-3-name" class="er entityLabel">password_hash</text><rect height="22" width="29.717254638671875" y="90" x="0" class="er attributeBoxEven"></rect><text style="dominant-baseline: middle; font-size: 10.2px;" transform="translate(5,101)" y="0" x="0" id="text-entity-User-818c511a-4a32-5484-ba70-875d765a9175-attr-4-type" class="er entityLabel">text</text><rect height="22" width="78.42012023925781" y="90" x="29.717254638671875" class="er attributeBoxEven"></rect><text style="dominant-baseline: middle; font-size: 10.2px;" transform="translate(34.717254638671875,101)" y="0" x="0" id="text-entity-User-818c511a-4a32-5484-ba70-875d765a9175-attr-4-name" class="er entityLabel">firstname</text><rect height="22" width="29.717254638671875" y="112" x="0" class="er attributeBoxOdd"></rect><text style="dominant-baseline: middle; font-size: 10.2px;" transform="translate(5,123)" y="0" x="0" id="text-entity-User-818c511a-4a32-5484-ba70-875d765a9175-attr-5-type" class="er entityLabel">text</text><rect height="22" width="78.42012023925781" y="112" x="29.717254638671875" class="er attributeBoxOdd"></rect><text style="dominant-baseline: middle; font-size: 10.2px;" transform="translate(34.717254638671875,123)" y="0" x="0" id="text-entity-User-818c511a-4a32-5484-ba70-875d765a9175-attr-5-name" class="er entityLabel">lastname</text><rect height="22" width="29.717254638671875" y="134" x="0" class="er attributeBoxEven"></rect><text style="dominant-baseline: middle; font-size: 10.2px;" transform="translate(5,145)" y="0" x="0" id="text-entity-User-818c511a-4a32-5484-ba70-875d765a9175-attr-6-type" class="er entityLabel">text</text><rect height="22" width="78.42012023925781" y="134" x="29.717254638671875" class="er attributeBoxEven"></rect><text style="dominant-baseline: middle; font-size: 10.2px;" transform="translate(34.717254638671875,145)" y="0" x="0" id="text-entity-User-818c511a-4a32-5484-ba70-875d765a9175-attr-6-name" class="er entityLabel">bio</text><rect height="22" width="29.717254638671875" y="156" x="0" class="er attributeBoxOdd"></rect><text style="dominant-baseline: middle; font-size: 10.2px;" transform="translate(5,167)" y="0" x="0" id="text-entity-User-818c511a-4a32-5484-ba70-875d765a9175-attr-7-type" class="er entityLabel">text</text><rect height="22" width="78.42012023925781" y="156" x="29.717254638671875" class="er attributeBoxOdd"></rect><text style="dominant-baseline: middle; font-size: 10.2px;" transform="translate(34.717254638671875,167)" y="0" x="0" id="text-entity-User-818c511a-4a32-5484-ba70-875d765a9175-attr-7-name" class="er entityLabel">pic_url</text></g><g transform="translate(20,488 )" id="entity-Article-226c5dcc-39c4-55ac-b188-c33e6e3ff746"><rect height="134" width="101.35432434082031" y="0" x="0" class="er entityBox"></rect><text style="dominant-baseline: middle; text-anchor: middle; font-size: 12px;" transform="translate(50.677162170410156,12)" y="0" x="0" id="text-entity-Article-226c5dcc-39c4-55ac-b188-c33e6e3ff746" class="er entityLabel">Article</text><rect height="22" width="47.109375" y="24" x="0" class="er attributeBoxOdd"></rect><text style="dominant-baseline: middle; font-size: 10.2px;" transform="translate(5,35)" y="0" x="0" id="text-entity-Article-226c5dcc-39c4-55ac-b188-c33e6e3ff746-attr-1-type" class="er entityLabel">int</text><rect height="22" width="54.24494934082031" y="24" x="47.109375" class="er attributeBoxOdd"></rect><text style="dominant-baseline: middle; font-size: 10.2px;" transform="translate(52.109375,35)" y="0" x="0" id="text-entity-Article-226c5dcc-39c4-55ac-b188-c33e6e3ff746-attr-1-name" class="er entityLabel">id</text><rect height="22" width="47.109375" y="46" x="0" class="er attributeBoxEven"></rect><text style="dominant-baseline: middle; font-size: 10.2px;" transform="translate(5,57)" y="0" x="0" id="text-entity-Article-226c5dcc-39c4-55ac-b188-c33e6e3ff746-attr-2-type" class="er entityLabel">int</text><rect height="22" width="54.24494934082031" y="46" x="47.109375" class="er attributeBoxEven"></rect><text style="dominant-baseline: middle; font-size: 10.2px;" transform="translate(52.109375,57)" y="0" x="0" id="text-entity-Article-226c5dcc-39c4-55ac-b188-c33e6e3ff746-attr-2-name" class="er entityLabel">author_id</text><rect height="22" width="47.109375" y="68" x="0" class="er attributeBoxOdd"></rect><text style="dominant-baseline: middle; font-size: 10.2px;" transform="translate(5,79)" y="0" x="0" id="text-entity-Article-226c5dcc-39c4-55ac-b188-c33e6e3ff746-attr-3-type" class="er entityLabel">text</text><rect height="22" width="54.24494934082031" y="68" x="47.109375" class="er attributeBoxOdd"></rect><text style="dominant-baseline: middle; font-size: 10.2px;" transform="translate(52.109375,79)" y="0" x="0" id="text-entity-Article-226c5dcc-39c4-55ac-b188-c33e6e3ff746-attr-3-name" class="er entityLabel">title</text><rect height="22" width="47.109375" y="90" x="0" class="er attributeBoxEven"></rect><text style="dominant-baseline: middle; font-size: 10.2px;" transform="translate(5,101)" y="0" x="0" id="text-entity-Article-226c5dcc-39c4-55ac-b188-c33e6e3ff746-attr-4-type" class="er entityLabel">text</text><rect height="22" width="54.24494934082031" y="90" x="47.109375" class="er attributeBoxEven"></rect><text style="dominant-baseline: middle; font-size: 10.2px;" transform="translate(52.109375,101)" y="0" x="0" id="text-entity-Article-226c5dcc-39c4-55ac-b188-c33e6e3ff746-attr-4-name" class="er entityLabel">content</text><rect height="22" width="47.109375" y="112" x="0" class="er attributeBoxOdd"></rect><text style="dominant-baseline: middle; font-size: 10.2px;" transform="translate(5,123)" y="0" x="0" id="text-entity-Article-226c5dcc-39c4-55ac-b188-c33e6e3ff746-attr-5-type" class="er entityLabel">numeric</text><rect height="22" width="54.24494934082031" y="112" x="47.109375" class="er attributeBoxOdd"></rect><text style="dominant-baseline: middle; font-size: 10.2px;" transform="translate(52.109375,123)" y="0" x="0" id="text-entity-Article-226c5dcc-39c4-55ac-b188-c33e6e3ff746-attr-5-name" class="er entityLabel">published</text></g><g transform="translate(220.67716217041016,298 )" id="entity-Comment-09a819da-2a79-5b7d-8a84-94cec22d9152"><rect height="90" width="100" y="0" x="0" class="er entityBox"></rect><text style="dominant-baseline: middle; text-anchor: middle; font-size: 12px;" transform="translate(50,12)" y="0" x="0" id="text-entity-Comment-09a819da-2a79-5b7d-8a84-94cec22d9152" class="er entityLabel">Comment</text><rect height="22" width="37.73615264892578" y="24" x="0" class="er attributeBoxOdd"></rect><text style="dominant-baseline: middle; font-size: 10.2px;" transform="translate(5,35)" y="0" x="0" id="text-entity-Comment-09a819da-2a79-5b7d-8a84-94cec22d9152-attr-1-type" class="er entityLabel">int</text><rect height="22" width="62.26384735107422" y="24" x="37.73615264892578" class="er attributeBoxOdd"></rect><text style="dominant-baseline: middle; font-size: 10.2px;" transform="translate(42.73615264892578,35)" y="0" x="0" id="text-entity-Comment-09a819da-2a79-5b7d-8a84-94cec22d9152-attr-1-name" class="er entityLabel">author_id</text><rect height="22" width="37.73615264892578" y="46" x="0" class="er attributeBoxEven"></rect><text style="dominant-baseline: middle; font-size: 10.2px;" transform="translate(5,57)" y="0" x="0" id="text-entity-Comment-09a819da-2a79-5b7d-8a84-94cec22d9152-attr-2-type" class="er entityLabel">int</text><rect height="22" width="62.26384735107422" y="46" x="37.73615264892578" class="er attributeBoxEven"></rect><text style="dominant-baseline: middle; font-size: 10.2px;" transform="translate(42.73615264892578,57)" y="0" x="0" id="text-entity-Comment-09a819da-2a79-5b7d-8a84-94cec22d9152-attr-2-name" class="er entityLabel">article_id</text><rect height="22" width="37.73615264892578" y="68" x="0" class="er attributeBoxOdd"></rect><text style="dominant-baseline: middle; font-size: 10.2px;" transform="translate(5,79)" y="0" x="0" id="text-entity-Comment-09a819da-2a79-5b7d-8a84-94cec22d9152-attr-3-type" class="er entityLabel">text</text><rect height="22" width="62.26384735107422" y="68" x="37.73615264892578" class="er attributeBoxOdd"></rect><text style="dominant-baseline: middle; font-size: 10.2px;" transform="translate(42.73615264892578,79)" y="0" x="0" id="text-entity-Comment-09a819da-2a79-5b7d-8a84-94cec22d9152-attr-3-name" class="er entityLabel">content</text></g><g transform="translate(20.677162170410156,722 )" id="entity-Topic-fe823971-3715-5962-88bf-ebbefe3baac2"><rect height="68" width="100" y="0" x="0" class="er entityBox"></rect><text style="dominant-baseline: middle; text-anchor: middle; font-size: 12px;" transform="translate(50,12)" y="0" x="0" id="text-entity-Topic-fe823971-3715-5962-88bf-ebbefe3baac2" class="er entityLabel">Topic</text><rect height="22" width="47.15917205810547" y="24" x="0" class="er attributeBoxOdd"></rect><text style="dominant-baseline: middle; font-size: 10.2px;" transform="translate(5,35)" y="0" x="0" id="text-entity-Topic-fe823971-3715-5962-88bf-ebbefe3baac2-attr-1-type" class="er entityLabel">int</text><rect height="22" width="52.84082794189453" y="24" x="47.15917205810547" class="er attributeBoxOdd"></rect><text style="dominant-baseline: middle; font-size: 10.2px;" transform="translate(52.15917205810547,35)" y="0" x="0" id="text-entity-Topic-fe823971-3715-5962-88bf-ebbefe3baac2-attr-1-name" class="er entityLabel">id</text><rect height="22" width="47.15917205810547" y="46" x="0" class="er attributeBoxEven"></rect><text style="dominant-baseline: middle; font-size: 10.2px;" transform="translate(5,57)" y="0" x="0" id="text-entity-Topic-fe823971-3715-5962-88bf-ebbefe3baac2-attr-2-type" class="er entityLabel">text</text><rect height="22" width="52.84082794189453" y="46" x="47.15917205810547" class="er attributeBoxEven"></rect><text style="dominant-baseline: middle; font-size: 10.2px;" transform="translate(52.15917205810547,57)" y="0" x="0" id="text-entity-Topic-fe823971-3715-5962-88bf-ebbefe3baac2-attr-2-name" class="er entityLabel">name</text></g><rect height="14" width="38.322265625" y="102.00001525878906" x="254.75186157226562" class="er relationshipLabelBox"></rect><text style="text-anchor: middle; dominant-baseline: middle; font-size: 12px;" y="109.00001525878906" x="273.9129943847656" id="rel1136" class="er relationshipLabel">follows</text><rect height="14" width="24.55859375" y="325.1167907714844" x="8.4097900390625" class="er relationshipLabelBox"></rect><text style="text-anchor: middle; dominant-baseline: middle; font-size: 12px;" y="332.1167907714844" x="20.6890869140625" id="rel1137" class="er relationshipLabel">likes</text><rect height="14" width="34.318359375" y="337.526123046875" x="103.5176010131836" class="er relationshipLabelBox"></rect><text style="text-anchor: middle; dominant-baseline: middle; font-size: 12px;" y="344.526123046875" x="120.6767807006836" id="rel1138" class="er relationshipLabel">writes</text><rect height="14" width="33.86328125" y="213.12088012695312" x="220.46661376953125" class="er relationshipLabelBox"></rect><text style="text-anchor: middle; dominant-baseline: middle; font-size: 12px;" y="220.12088012695312" x="237.39825439453125" id="rel1139" class="er relationshipLabel">makes</text><rect height="14" width="13.439453125" y="462.9517822265625" x="205.49661254882812" class="er relationshipLabelBox"></rect><text style="text-anchor: middle; dominant-baseline: middle; font-size: 12px;" y="469.9517822265625" x="212.21633911132812" id="rel1140" class="er relationshipLabel">on</text><rect height="14" width="42.880859375" y="665" x="49.236572265625" class="er relationshipLabelBox"></rect><text style="text-anchor: middle; dominant-baseline: middle; font-size: 12px;" y="672" x="70.677001953125" id="rel1141" class="er relationshipLabel">is about</text><text class="entityTitleText" y="-25" x="164.54348754882812">Tehreer DB</text></svg>